<?xml version="1.0" encoding="utf-8"?>
<!-- Generator: Adobe Illustrator 22.0.1, SVG Export Plug-In . SVG Version: 6.00 Build 0)  -->
<svg version="1.1" id="Calque_1" xmlns="http://www.w3.org/2000/svg" xmlns:xlink="http://www.w3.org/1999/xlink" x="0px" y="0px"
	 viewBox="0 0 384.5 151.5" style="enable-background:new 0 0 384.5 151.5;" xml:space="preserve">
<style type="text/css">
	.st0{fill:#FFFFFF;}
	.st1{fill:#1D1D1B;}
</style>
<g>
	<path class="st0" d="M12.7,142.2c-0.6,0-1-0.4-1-1v-129c0-0.6,0.4-1,1-1h361c0.6,0,1,0.4,1,1v129c0,0.6-0.4,1-1,1H12.7z"/>
	<path class="st1" d="M373.7,12.2v129h-361v-129H373.7 M373.7,10.2h-361c-1.1,0-2,0.9-2,2v129c0,1.1,0.9,2,2,2h361c1.1,0,2-0.9,2-2
		v-129C375.7,11.1,374.8,10.2,373.7,10.2L373.7,10.2z"/>
</g>
</svg>
